<?xml version="1.0" encoding="utf-8"?>
<!-- Generator: Adobe Illustrator 24.2.1, SVG Export Plug-In . SVG Version: 6.00 Build 0)  -->
<svg version="1.1" id="Calque_1" xmlns="http://www.w3.org/2000/svg" xmlns:xlink="http://www.w3.org/1999/xlink" x="0px" y="0px"
	 viewBox="0 0 365.6 371.2" style="enable-background:new 0 0 365.6 371.2;" xml:space="preserve">
<path d="M219.2,54.3c-26.9,0-51.1,11.6-67.9,30.1l0-0.1c-3.7,4-8.9,6.4-14.7,6.4c-9.1,0-16.8-6.1-19.2-14.4l0,0.1
	c-4.3-12.9-16.5-22.1-30.8-22.1c-18,0-32.5,14.6-32.5,32.5s14.6,32.5,32.5,32.5c5.4,0,10.6-1.4,15.1-3.7l0,0c2-0.7,4.3-1.1,6.6-1.1
	c11.1,0,20.2,9,20.2,20.1l0,0c-0.4,3.6-0.7,7.3-0.7,11.1c0,50.5,41,91.5,91.5,91.5s91.5-41,91.5-91.5
	C310.7,95.3,269.7,54.3,219.2,54.3z M86.6,105.2c-10.1,0-18.3-8.2-18.3-18.3c0-10.1,8.2-18.3,18.3-18.3s18.3,8.2,18.3,18.3
	C104.9,97,96.7,105.2,86.6,105.2z M219.2,204.8c-32.6,0-59-26.4-59-59c0-32.6,26.4-59,59-59s59,26.4,59,59
	C278.2,178.4,251.8,204.8,219.2,204.8z"/>
<path d="M74.9,313.1l-20.2-42.4c-3-6.1,6.1-11,9.4-4.7l6.8,15.4l8.8,20.2l8.7-20.2l6.8-15.4c3.1-5.8,11.9-2.1,9.3,4.2L85,313.1
	C83.2,317.9,77.8,319,74.9,313.1z"/>
<path d="M112.7,268.1c0-6.3,10.1-6.5,10.1,0v43.7c0,6.4-10.1,6.5-10.1,0V268.1z"/>
<path d="M138.7,316.5c-2.8,0-4.7-2.1-4.7-4.7v-43.5c0-2.8,1.9-4.7,4.7-4.7h21.5c10,0,15.5,6.8,15.5,14.6c0,3.4-1,6.8-4.2,9.7
	c6.1,2.4,8.7,7,8.7,12.7c0,8.8-6,16-17.5,16H138.7z M160.3,272.9h-16.2v11.4h16.2c3.3,0,5.4-2.1,5.4-6.1
	C165.6,275.6,163.6,272.9,160.3,272.9z M144.1,307.2h18.7c8.9,0,8.9-13.6,0-13.6c-5.8,0-12.6,0-18.7,0V307.2z"/>
<path d="M199.5,311.5c0,6.7-10.2,6.9-10.2,0.2v-43.5c0-2.7,2.1-4.7,4.6-4.7h20.4c19.5,0,23.4,26,7.2,32.6l10.2,12.4
	c4,5.9-4,11.6-8.6,5.7l-11.6-16.5h-12V311.5z M199.5,288.9h14.8c10,0,10.6-16.1,0-16.1h-14.8V288.9z"/>
<path d="M240.6,290v4v16.3v1.5c0,6.5,10.1,6.4,10.1,0v-1.2v-17.2V290C250.7,283.5,240.6,283.7,240.6,290z"/>
<path d="M284.7,263.2c-7.9,0-15,3.4-19.9,8.9l0,0c-1.1,1.2-2.6,1.9-4.3,1.9c-2.7,0-4.9-1.8-5.7-4.2l0,0c-1.3-3.8-4.8-6.5-9.1-6.5
	c-5.3,0-9.6,4.3-9.6,9.6c0,5.3,4.3,9.6,9.6,9.6c1.6,0,3.1-0.4,4.4-1.1l0,0c0.6-0.2,1.3-0.3,1.9-0.3c3.3,0,5.9,2.7,5.9,5.9l0,0
	c-0.1,1.1-0.2,2.2-0.2,3.3c0,14.9,12,27,26.9,27s26.9-12.1,26.9-27C311.6,275.3,299.5,263.2,284.7,263.2z M245.7,278.2
	c-3,0-5.4-2.4-5.4-5.4s2.4-5.4,5.4-5.4s5.4,2.4,5.4,5.4S248.7,278.2,245.7,278.2z M284.7,307.5c-9.6,0-17.3-7.8-17.3-17.4
	c0-9.6,7.8-17.4,17.3-17.4c9.6,0,17.3,7.8,17.3,17.4C302,299.8,294.2,307.5,284.7,307.5z"/>
</svg>
